<svg version="1.1" id="Layer_1" xmlns="http://www.w3.org/2000/svg" xmlns:xlink="http://www.w3.org/1999/xlink" x="0px" y="0px"
	 width="256px" height="272px" viewBox="0 0 256 272" enable-background="new 0 0 256 272" xml:space="preserve">

<!-- 1. 这里是定义的马卡龙渐变色 -->

<defs>

  <!-- 这里的 cx, cy 是光中心的位置，我设在了中间偏下，模仿翅膀根部 -->

  <radialGradient id="rainbowWing" cx="50%" cy="80%" r="100%" fx="50%" fy="80%">

    <stop offset="0%" style="stop-color:#FFFFFF" />      <!-- 中心白光 -->

    <stop offset="20%" style="stop-color:#FEF3C7" />      <!-- 黄 -->

    <stop offset="35%" style="stop-color:#FCE7F3" />      <!-- 粉 -->

    <stop offset="50%" style="stop-color:#D1FAE5" />      <!-- 绿 -->

    <stop offset="70%" style="stop-color:#E0F2FE" />      <!-- 蓝 -->

    <stop offset="100%" style="stop-color:#EDE9FE" />     <!-- 外圈紫 -->

  </radialGradient>

</defs>

<!-- 2. 这是你的鸽子主体 -->

<!-- 我把 fill 改成了 url(#rainbowWing) -->

<!-- 我加了一个浅灰色的边框 stroke，让它轮廓更清晰 -->

<path fill="url(#rainbowWing)" stroke="#9CA3AF" stroke-width="2" opacity="1.000000" 

	d="

M88.173103,115.523262 

	C82.112282,96.491859 82.363663,73.429626 89.013557,65.344589 

	C98.723106,81.457909 115.453690,88.782516 129.897217,99.012299 

	C145.100449,109.780144 153.802460,124.204384 153.354462,143.360474 

	C153.342850,143.857239 153.379715,144.362213 153.462936,144.851639 

	C153.516754,145.168182 153.696335,145.463348 153.822754,145.766785 

	C159.158890,145.281921 163.062088,140.210632 162.113373,134.667953 

	C161.554108,131.400574 160.628281,128.189835 159.759537,124.982811 

	C157.770615,117.640724 159.376678,113.338211 165.878265,109.165077 

	C165.031952,108.178093 164.232758,107.175575 163.360779,106.240952 

	C158.775909,101.326698 154.241516,101.547142 149.953552,106.771149 

	C148.744370,108.244293 147.960678,111.338211 145.106812,108.827835 

	C142.546631,106.575798 144.364197,104.550987 145.858337,102.804588 

	C150.166199,97.769432 159.472565,96.450005 164.484039,100.418106 

	C167.748016,103.002548 170.745132,105.833740 174.805145,107.207703 

	C176.031479,107.622719 177.301575,108.497940 176.902512,110.168129 

	C176.587219,111.487846 175.320877,111.729607 174.209061,112.082520 

	C163.988083,115.326851 162.252899,118.095772 165.830231,128.055481 

	C169.705185,138.843796 166.211014,148.597565 155.457565,151.666031 

	C153.401810,152.252640 152.181519,153.704742 151.400360,155.726196 

	C147.359116,166.183914 139.694962,173.191208 129.335007,176.732834 

	C117.746246,180.694519 106.768173,185.694031 96.538994,192.392426 

	C95.862457,192.835449 95.055321,193.104614 94.275970,193.349976 

	C94.032227,193.426727 93.680176,193.159500 92.799095,192.839722 

	C95.410263,180.348541 100.596733,169.491577 111.339249,161.784698 

	C119.422920,155.985336 128.935104,154.103104 138.278976,151.708099 

	C149.150085,148.921631 150.394867,146.679214 148.306763,135.475739 

	C145.339355,119.554474 135.207474,108.895485 122.546570,100.158554 

	C117.352959,96.574593 111.791550,93.516373 106.344604,90.308739 

	C100.709579,86.990334 95.712585,82.912674 90.479568,76.910835 

	C88.000061,92.666176 88.315369,106.800621 96.593315,119.843231 

	C103.246696,130.326233 121.827667,137.123566 136.277802,134.261032 

	C130.690445,122.964249 121.893150,114.998039 111.271614,108.844490 

	C112.877327,106.644829 113.823853,108.020370 114.660957,108.439018 

	C126.583862,114.401985 135.980652,123.051804 142.575012,134.707413 

	C144.486237,138.085541 144.057480,140.007721 139.821869,140.239349 

	C127.831436,140.895096 116.275429,139.362900 105.337563,134.016586 

	C97.318993,130.097168 91.707573,124.075897 88.173103,115.523262 

M132.859131,168.411057 

	C137.793167,164.873779 143.924164,162.429672 145.349182,155.176407 

	C123.638039,158.749817 106.884979,165.921127 102.129044,182.548080 

	C112.387138,177.851425 122.303291,173.311310 132.859131,168.411057 

z"/>

</svg>

